<svg width="26" height="26" viewBox="0 0 26 26" fill="none" xmlns="http://www.w3.org/2000/svg">
<path d="M25.6201 12.9873L21.9385 24.3766C21.7015 24.8163 21.3629 25.1925 20.9228 25.5054C20.4827 25.8182 19.9918 25.9831 19.4502 26C18.9762 25.9831 18.5023 25.8098 18.0283 25.48C17.5543 25.1502 17.2327 24.7824 17.0635 24.3766L13.3818 12.9873C12.9925 12.0065 12.9121 11.2202 13.1406 10.6283C13.3691 10.0364 13.7881 9.74049 14.3974 9.74049H24.6045C25.2139 9.74049 25.6328 10.0364 25.8613 10.6283C26.0898 11.2202 26.0094 12.0065 25.6201 12.9873ZM19.374 26H19.5264H19.374ZM14.626 4.87024C14.626 3.5174 15.1041 2.36748 16.0605 1.42049C17.0169 0.473496 18.1679 0 19.5137 0C20.8594 0 22.0062 0.473496 22.9541 1.42049C23.902 2.36748 24.376 3.5174 24.376 4.87024C24.376 6.22309 23.902 7.37301 22.9541 8.32C22.0062 9.26699 20.8594 9.74049 19.5137 9.74049C18.1679 9.74049 17.0169 9.26699 16.0605 8.32C15.1041 7.37301 14.626 6.22309 14.626 4.87024ZM11.6045 26H1.37205C0.779602 26 0.36912 25.7041 0.140604 25.1122C-0.0879113 24.5203 -0.0159712 23.734 0.356425 22.7532L4.82518 9.4361C3.87726 9.08098 3.10284 8.48911 2.50193 7.66049C1.90102 6.83187 1.60057 5.90179 1.60057 4.87024C1.60057 3.5174 2.07876 2.36748 3.03514 1.42049C3.99152 0.473496 5.14256 0 6.48826 0C7.83396 0 8.98501 0.473496 9.94139 1.42049C10.8978 2.36748 11.376 3.5174 11.376 4.87024C11.376 5.9187 11.067 6.86146 10.4492 7.69854C9.83136 8.53561 9.04002 9.12325 8.07518 9.46146L12.6201 22.7532C13.0094 23.734 13.0856 24.5203 12.8486 25.1122C12.6116 25.7041 12.1969 26 11.6045 26Z" fill="#FEC6E8"/>
</svg>
