<svg width="17" height="19" viewBox="0 0 17 19" fill="none" xmlns="http://www.w3.org/2000/svg">
<path d="M2.25307 16.3956C0.103466 14.246 0.103466 10.7671 2.25307 8.61746L9.67769 1.19284C11.2404 -0.36987 13.7718 -0.36987 15.3345 1.19284C16.8973 2.75554 16.8973 5.28698 15.3345 6.84969L9.32414 12.8601C8.34833 13.8359 6.76441 13.8359 5.7886 12.8601C4.8128 11.8843 4.8128 10.3004 5.7886 9.32456L11.0919 4.02126L12.5061 5.43548L7.13918 10.8024C6.75027 11.1913 7.45738 11.8984 7.84629 11.5095L13.9203 5.43548C14.6982 4.65766 14.6982 3.38487 13.9203 2.60705C13.1425 1.82923 11.8697 1.82923 11.0919 2.60705L3.66728 10.0317C2.30257 11.3964 2.30257 13.6167 3.66728 14.9814C5.032 16.3461 7.25232 16.3461 8.61703 14.9814L15.3345 8.2639L16.7488 9.67812L10.0312 16.3956C7.88164 18.5452 4.40267 18.5452 2.25307 16.3956Z" fill="#19191B" fill-opacity="0.68"/>
</svg>
