<svg width="18" height="22" viewBox="0 0 18 22" fill="none" xmlns="http://www.w3.org/2000/svg">
<path d="M15.6321 13.3191C13.7454 12.7236 14.2825 12.2495 16.083 11.5731C16.9455 11.2485 16.421 10.5639 16.4446 10.0163C16.4551 9.76566 17.4407 9.81563 17.3692 8.84875C17.3188 8.16788 15.8189 7.19775 15.4103 6.78379C15.1742 6.54491 15.8913 5.89125 15.3863 5.31641C14.6969 4.53072 14.588 3.16369 14.1708 2.39913C14.1708 2.39913 14.4889 1.91325 14.2451 1.637C12.1424 -0.743214 4.29567 -0.524652 2.29042 2.97844C0.0393861 6.91094 0.00932372 12.3462 4.68973 15.2744C6.77135 16.5764 4.10514 21.1874 4.10514 21.1874H12.3597C12.3597 20.4001 11.4392 17.5758 13.0504 17.7026C14.4503 17.8127 16.1647 17.7521 16.0127 16.171C15.9668 15.6941 15.9128 15.2647 16.2459 14.8694C16.579 14.4745 17.0613 13.7701 15.6321 13.3191Z" fill="#FEC6E8"/>
</svg>
